<svg width="384" height="210" viewBox="0 0 384 210" fill="none" xmlns="http://www.w3.org/2000/svg" xmlns:xlink="http://www.w3.org/1999/xlink">
<path d="M113.606,33.621C125.198,33.621 134.596,26.094 134.596,16.81C134.596,7.526 125.198,0 113.606,0C102.014,0 92.617,7.526 92.617,16.81C92.617,26.094 102.014,33.621 113.606,33.621Z" fill="#FF6584"/>
<path d="M151.484,3.913C141.312,2.811 129.698,7.215 127.062,15.16C126.397,13.748 125.189,12.541 123.612,11.714C122.035,10.887 120.171,10.483 118.288,10.56C116.406,10.638 114.603,11.192 113.14,12.144C111.677,13.096 110.63,14.396 110.149,15.855L111.314,16.523C133.113,20.299 155.679,20.217 177.434,16.284C170.358,10.328 161.656,5.014 151.484,3.913Z" fill="#F0F0F0"/>
<path d="M107.859,26.326C97.686,25.225 86.073,29.629 83.436,37.574C82.772,36.161 81.564,34.954 79.987,34.127C78.41,33.301 76.546,32.897 74.663,32.974C72.781,33.051 70.978,33.606 69.515,34.558C68.052,35.51 67.004,36.809 66.524,38.269L67.689,38.937C89.488,42.712 112.053,42.631 133.809,38.698C126.733,32.742 118.031,27.428 107.859,26.326Z" fill="#F0F0F0"/>
<path d="M185.514,71.281C182.071,66.721 177.991,61.851 171.601,60.362C164.202,58.637 156.601,62.063 150.153,65.444C130.872,75.555 112.303,86.512 94.533,98.265L94.552,98.442C108.387,97.678 122.222,96.914 136.057,96.15C146.053,95.598 156.392,94.969 165.226,91.182C168.578,89.745 171.845,87.826 175.644,87.692C180.363,87.526 184.478,90.165 187.711,92.923C206.839,109.236 212.375,134.183 233.835,148.516C220.303,121.788 204.145,95.962 185.514,71.281Z" fill="#F2F2F2"/>
<path d="M303.093,209.647C300.977,207.508 300.113,207.007 298.027,204.848C281.037,187.25 265.069,169.058 250.121,150.271C239.967,137.512 230.318,124.507 221.171,111.258C216.817,104.959 212.582,98.611 208.467,92.213C205.273,87.252 202.151,82.262 199.1,77.242C198.227,75.808 197.379,74.368 196.536,72.924C194.548,69.529 192.597,66.117 190.502,62.768C188.115,58.952 185.209,54.95 180.826,52.386C178.831,51.171 176.446,50.436 173.949,50.266C170.381,50.082 167.088,51.262 163.993,52.55C141.35,62.007 120.15,73.863 100.976,87.354C81.752,100.876 64.569,116.152 49.778,132.871C49.325,133.388 48.255,132.894 48.712,132.373C50.511,130.336 52.345,128.321 54.215,126.328C77.465,101.563 105.973,80.266 138.436,63.411C143.897,60.577 149.462,57.875 155.128,55.306C157.985,54.011 160.853,52.732 163.771,51.532C166.632,50.355 169.669,49.297 172.937,49.258C184.057,49.119 189.815,59.205 193.77,65.992C195.013,68.128 196.271,70.257 197.544,72.38C202.355,80.439 207.351,88.424 212.533,96.336C215.73,101.221 218.998,106.077 222.336,110.905C232.724,125.939 243.764,140.668 255.459,155.093C270.949,174.201 286.317,191.08 303.965,208.949C304.451,209.443 303.583,210.148 303.093,209.647Z" fill="#E4E4E4"/>
<path d="M99.877,82.374C99.231,81.797 98.589,81.22 97.938,80.643C92.81,76.101 87.308,71.612 80.266,69.008C76.908,67.727 73.243,67.047 69.524,67.014C65.68,67.024 61.923,67.831 58.371,68.962C56.692,69.499 55.05,70.109 53.433,70.758C51.585,71.503 49.77,72.298 47.963,73.099C44.572,74.602 41.224,76.171 37.921,77.805C31.348,81.059 24.981,84.56 18.821,88.31C15.627,90.255 12.499,92.263 9.437,94.335C6.589,96.26 3.799,98.237 1.066,100.265C0.481,100.697 -0.391,99.998 0.193,99.566C0.913,99.029 1.642,98.495 2.37,97.968C4.428,96.478 6.519,95.017 8.643,93.584C12.515,90.967 16.488,88.451 20.561,86.036C26.895,82.278 33.447,78.776 40.217,75.528C43.6,73.906 47.03,72.352 50.506,70.867C51.556,70.419 52.618,69.98 53.692,69.565C56.129,68.58 58.662,67.755 61.264,67.096C64.952,66.141 68.853,65.834 72.702,66.196C76.418,66.629 79.998,67.621 83.254,69.12C90.168,72.215 95.531,77.001 100.749,81.672C101.276,82.146 100.408,82.848 99.877,82.374Z" fill="#E4E4E4"/>
<path d="M241.545,129.442L258.113,124.589L266.339,122.179C269.018,121.394 271.691,120.501 274.46,119.939C276.909,119.442 279.397,119.361 281.811,120.014C283.941,120.645 285.891,121.613 287.544,122.86C289.234,124.106 290.806,125.451 292.247,126.882C294.038,128.606 295.803,130.348 297.575,132.084C304.89,139.249 312.157,146.445 319.377,153.672C326.596,160.899 333.767,168.157 340.89,175.445C348.03,182.751 355.121,190.088 362.163,197.455C363.026,198.358 363.888,199.261 364.749,200.164C365.225,200.663 366.298,200.171 365.815,199.665C358.721,192.224 351.578,184.813 344.385,177.432C337.175,170.034 329.914,162.667 322.604,155.332C315.294,147.997 307.935,140.693 300.526,133.422C298.68,131.61 296.831,129.801 294.979,127.993C293.417,126.468 291.873,124.927 290.159,123.508C287.014,120.903 283.085,118.601 278.382,118.538C275.616,118.502 272.94,119.205 270.371,119.949C267.601,120.751 264.838,121.569 262.071,122.379L245.388,127.266L241.217,128.488C240.477,128.705 240.796,129.661 241.545,129.442Z" fill="#E4E4E4"/>
<path d="M78.086,74.723C69.666,71.258 58.884,71.936 51.147,76.266C65.905,78.305 80.501,81.034 94.861,84.437C88.898,81.639 84.233,77.254 78.086,74.723Z" fill="#F2F2F2"/>
<path d="M51.064,76.254L49.443,77.309C49.992,76.94 50.562,76.594 51.147,76.266C51.119,76.262 51.092,76.258 51.064,76.254Z" fill="#F2F2F2"/>
<path d="M286.921,129.49C285.29,127.9 283.526,126.236 281.087,125.59L278.809,125.662C296.147,150.197 319.562,171.636 347.617,188.663C327.385,168.939 307.153,149.214 286.921,129.49Z" fill="#F2F2F2"/>
<path d="M117.314,191.594C118.243,185.613 122.87,179.721 129.992,177.775C127.183,183.93 127.184,190.683 129.993,196.838C131.088,199.208 132.613,201.754 131.584,204.143C130.943,205.63 129.377,206.767 127.625,207.478C125.874,208.189 123.93,208.528 122.011,208.861L121.633,209.111C118.586,203.601 116.386,197.574 117.314,191.594Z" fill="#F0F0F0"/>
<path d="M130.062,177.888C125.915,181.61 123.338,186.283 122.696,191.244C122.534,192.311 122.583,193.39 122.841,194.444C123.134,195.465 123.762,196.403 124.661,197.163C125.482,197.885 126.425,198.547 127.012,199.417C127.305,199.865 127.475,200.358 127.513,200.863C127.551,201.368 127.455,201.873 127.231,202.346C126.713,203.537 125.692,204.507 124.651,205.429C123.497,206.451 122.277,207.499 121.786,208.855C121.726,209.019 121.412,208.936 121.471,208.772C122.325,206.413 125.184,205.073 126.548,202.948C127.184,201.956 127.451,200.805 126.855,199.759C126.333,198.843 125.361,198.16 124.522,197.434C123.632,196.704 122.978,195.809 122.619,194.829C122.295,193.789 122.194,192.713 122.321,191.646C122.558,189.24 123.267,186.878 124.42,184.649C125.719,182.098 127.553,179.744 129.843,177.689C129.985,177.562 130.203,177.762 130.062,177.888Z" fill="#FFFFFF"/>
<path d="M122.785,189.637C121.76,189.438 120.857,188.953 120.238,188.27C119.618,187.587 119.321,186.749 119.401,185.907C119.418,185.737 119.749,185.75 119.732,185.921C119.656,186.705 119.932,187.485 120.511,188.12C121.09,188.755 121.934,189.204 122.889,189.385C123.097,189.424 122.992,189.676 122.785,189.637Z" fill="#FFFFFF"/>
<path d="M124.185,196.841C126.036,195.956 127.402,194.545 128.012,192.888C128.072,192.724 128.387,192.808 128.327,192.972C127.688,194.694 126.263,196.16 124.334,197.078C124.15,197.165 124.002,196.928 124.185,196.841Z" fill="#FFFFFF"/>
<path d="M126.027,182.35C126.403,182.493 126.818,182.559 127.234,182.542C127.651,182.525 128.055,182.426 128.411,182.253C128.594,182.164 128.742,182.401 128.561,182.49C128.166,182.68 127.719,182.789 127.259,182.809C126.799,182.828 126.34,182.757 125.923,182.602C125.882,182.59 125.848,182.566 125.828,182.535C125.809,182.504 125.805,182.468 125.817,182.434C125.831,182.401 125.861,182.373 125.9,182.357C125.939,182.342 125.985,182.339 126.027,182.35Z" fill="#FFFFFF"/>
<path d="M151.698,188.456C151.586,188.515 151.474,188.573 151.362,188.633C149.863,189.423 148.445,190.309 147.125,191.283C147.021,191.357 146.918,191.433 146.817,191.51C143.667,193.882 141.094,196.703 139.229,199.828C138.489,201.072 137.867,202.36 137.371,203.679C136.685,205.502 136.122,207.521 134.765,209.012C134.625,209.169 134.474,209.319 134.311,209.46L122.044,209.46C122.016,209.449 121.988,209.44 121.96,209.429L121.47,209.447C121.49,209.378 121.512,209.306 121.532,209.236C121.543,209.196 121.557,209.156 121.568,209.115C121.576,209.088 121.585,209.061 121.59,209.037C121.593,209.028 121.596,209.019 121.599,209.012C121.604,208.987 121.613,208.965 121.618,208.943C121.742,208.541 121.868,208.14 121.999,207.739C121.999,207.737 121.999,207.737 122.002,207.734C122.96,204.669 124.37,201.706 126.2,198.907C126.256,198.824 126.312,198.739 126.374,198.656C127.221,197.417 128.194,196.235 129.282,195.123C129.88,194.516 130.516,193.933 131.188,193.377C132.927,191.943 134.937,190.737 137.144,189.804C141.544,187.943 146.638,187.23 151.34,188.367C151.46,188.396 151.578,188.425 151.698,188.456Z" fill="#F0F0F0"/>
<path d="M151.671,188.581C145.562,189.553 139.991,192.041 135.748,195.693C134.818,196.467 134.045,197.352 133.459,198.318C132.926,199.274 132.722,200.327 132.868,201.367C132.981,202.339 133.236,203.323 133.051,204.3C132.948,204.799 132.713,205.274 132.364,205.696C132.014,206.117 131.558,206.475 131.024,206.745C129.715,207.445 128.17,207.728 126.647,207.962C124.956,208.221 123.194,208.47 121.783,209.316C121.612,209.418 121.423,209.2 121.594,209.097C124.05,207.625 127.34,207.934 130.026,206.895C131.279,206.41 132.358,205.62 132.668,204.497C132.94,203.515 132.678,202.5 132.553,201.516C132.392,200.503 132.542,199.474 132.992,198.519C133.515,197.532 134.244,196.624 135.147,195.833C137.146,194.026 139.486,192.483 142.083,191.259C145.038,189.848 148.272,188.853 151.645,188.316C151.854,188.283 151.878,188.548 151.671,188.581Z" fill="#FFFFFF"/>
<path d="M137.028,194.453C136.359,193.8 136.003,192.978 136.021,192.133C136.04,191.289 136.433,190.477 137.13,189.843C137.271,189.715 137.526,189.885 137.384,190.014C136.734,190.603 136.368,191.359 136.353,192.145C136.337,192.932 136.674,193.697 137.3,194.302C137.436,194.433 137.163,194.584 137.028,194.453Z" fill="#FFFFFF"/>
<path d="M132.73,200.88C134.873,201.066 137.025,200.598 138.757,199.569C138.928,199.467 139.117,199.686 138.945,199.788C137.141,200.855 134.901,201.339 132.671,201.141C132.458,201.122 132.519,200.861 132.73,200.88Z" fill="#FFFFFF"/>
<path d="M145.094,190.198C145.287,190.493 145.569,190.746 145.914,190.934C146.259,191.121 146.657,191.236 147.071,191.27C147.284,191.287 147.223,191.548 147.012,191.531C146.554,191.492 146.115,191.364 145.733,191.158C145.352,190.952 145.039,190.674 144.822,190.349C144.798,190.319 144.789,190.284 144.797,190.25C144.805,190.215 144.829,190.185 144.864,190.164C144.9,190.144 144.944,190.136 144.988,190.143C145.031,190.149 145.069,190.169 145.094,190.198Z" fill="#FFFFFF"/>
<path d="M206.508,159.099C200.491,148.439 200.713,134.928 210.051,125.933C213.175,138.406 221.708,149.592 234.138,157.512C238.946,160.552 244.689,163.533 246.002,168.325C246.82,171.307 245.661,174.46 243.658,177.058C241.656,179.655 238.864,181.792 236.104,183.898L235.795,184.618C223.785,177.959 212.525,169.758 206.508,159.099Z" fill="#F0F0F0"/>
<path d="M210.311,126.063C208.143,135.589 209.777,145.42 214.982,154.159C216.061,156.057 217.507,157.806 219.266,159.343C221.039,160.795 223.267,161.841 225.716,162.371C227.987,162.902 230.387,163.235 232.458,164.199C233.508,164.705 234.414,165.383 235.114,166.189C235.815,166.995 236.294,167.911 236.522,168.876C237.168,171.268 236.701,173.703 236.142,176.072C235.521,178.702 234.824,181.427 235.724,184.071C235.833,184.391 235.206,184.508 235.097,184.188C233.532,179.588 236.575,175.05 236.15,170.425C235.951,168.267 234.94,166.144 232.629,164.894C230.609,163.8 228.134,163.455 225.829,162.934C223.43,162.444 221.217,161.492 219.384,160.16C217.533,158.7 216.006,156.998 214.867,155.128C212.221,150.949 210.412,146.464 209.506,141.835C208.435,136.557 208.499,131.171 209.696,125.911C209.77,125.585 210.385,125.74 210.311,126.063Z" fill="#FFFFFF"/>
<path d="M213.099,151.424C211.15,151.924 209.042,151.854 207.152,151.224C205.262,150.595 203.713,149.448 202.781,147.988C202.594,147.692 203.159,147.445 203.347,147.741C204.211,149.102 205.654,150.17 207.416,150.754C209.177,151.337 211.141,151.397 212.953,150.922C213.347,150.819 213.491,151.322 213.099,151.424Z" fill="#FFFFFF"/>
<path d="M224.52,162.224C226.468,159.257 226.948,155.812 225.866,152.575C225.758,152.254 226.385,152.138 226.492,152.458C227.611,155.828 227.102,159.413 225.067,162.496C224.873,162.789 224.327,162.516 224.52,162.224Z" fill="#FFFFFF"/>
<path d="M209.263,136.725C210.067,136.657 210.838,136.43 211.506,136.065C212.175,135.7 212.719,135.207 213.091,134.631C213.28,134.336 213.826,134.61 213.638,134.904C213.223,135.538 212.621,136.081 211.884,136.486C211.147,136.891 210.297,137.146 209.409,137.227C209.326,137.24 209.24,137.228 209.168,137.192C209.096,137.156 209.044,137.1 209.022,137.034C209.003,136.968 209.018,136.898 209.063,136.84C209.108,136.782 209.18,136.741 209.263,136.725Z" fill="#FFFFFF"/>
<path d="M259.506,126.037C259.394,126.225 259.282,126.412 259.173,126.603C257.686,129.127 256.458,131.743 255.501,134.426C255.423,134.633 255.347,134.843 255.277,135.051C253.056,141.535 252.357,148.293 253.217,154.981C253.561,157.642 254.159,160.278 255.003,162.867C256.17,166.442 257.789,170.244 257.424,173.813C257.391,174.186 257.329,174.557 257.239,174.923L236.916,184.865C236.856,184.869 236.798,184.877 236.738,184.881L235.949,185.308C235.894,185.176 235.84,185.04 235.785,184.909C235.752,184.833 235.724,184.754 235.692,184.679C235.672,184.627 235.652,184.576 235.63,184.53C235.623,184.513 235.617,184.496 235.613,184.483C235.591,184.437 235.577,184.393 235.558,184.352C235.255,183.587 234.958,182.82 234.667,182.049C234.664,182.045 234.664,182.045 234.666,182.039C232.471,176.164 230.868,170.089 230.468,164.013C230.456,163.83 230.441,163.644 230.439,163.457C230.277,160.717 230.396,157.972 230.793,155.247C231.016,153.756 231.334,152.275 231.744,150.81C232.814,147.025 234.62,143.399 237.097,140.064C242.035,133.416 249.574,128.107 258.799,126.179C259.035,126.13 259.267,126.083 259.506,126.037Z" fill="#F0F0F0"/>
<path d="M259.618,126.266C250.725,132.827 244.64,141.464 242.226,150.952C241.661,152.987 241.5,155.081 241.749,157.156C242.074,159.171 243.066,161.08 244.623,162.685C246.037,164.204 247.703,165.627 248.632,167.395C249.09,168.306 249.303,169.284 249.257,170.265C249.21,171.246 248.905,172.208 248.361,173.089C247.078,175.31 244.875,177.03 242.648,178.651C240.175,180.452 237.57,182.291 236.301,184.836C236.147,185.144 235.559,184.935 235.713,184.627C237.921,180.199 243.762,178.045 246.899,174.147C248.363,172.328 249.151,170.144 248.247,168.032C247.455,166.185 245.739,164.716 244.29,163.188C242.743,161.641 241.692,159.813 241.229,157.866C240.849,155.808 240.909,153.712 241.406,151.67C242.435,147.058 244.362,142.604 247.118,138.471C250.231,133.741 254.331,129.471 259.241,125.848C259.545,125.624 259.92,126.044 259.618,126.266Z" fill="#FFFFFF"/>
<path d="M242.779,147.86C240.846,147.32 239.216,146.247 238.18,144.833C237.145,143.419 236.77,141.756 237.124,140.141C237.196,139.814 237.834,139.89 237.76,140.217C237.428,141.72 237.777,143.269 238.745,144.584C239.713,145.899 241.236,146.894 243.039,147.389C243.431,147.497 243.168,147.967 242.779,147.86Z" fill="#FFFFFF"/>
<path d="M243.779,161.99C247.564,160.561 250.538,158.042 252.107,154.935C252.262,154.627 252.85,154.836 252.695,155.144C251.055,158.374 247.954,160.991 244.011,162.471C243.635,162.612 243.405,162.13 243.779,161.99Z" fill="#FFFFFF"/>
<path d="M250.765,134.273C251.459,134.607 252.245,134.798 253.053,134.829C253.861,134.859 254.666,134.728 255.396,134.448C255.769,134.303 255.999,134.785 255.628,134.929C254.82,135.236 253.931,135.379 253.038,135.347C252.145,135.315 251.275,135.108 250.505,134.745C250.429,134.716 250.369,134.664 250.339,134.601C250.308,134.538 250.309,134.468 250.341,134.405C250.376,134.343 250.44,134.294 250.519,134.269C250.599,134.245 250.687,134.246 250.765,134.273Z" fill="#FFFFFF"/>
<path d="M298.591,171.442L321.451,157.542L332.593,166.466L295.353,186.876L298.591,171.442Z" fill="#3F3D56"/>
<path d="M277.271,209.715L199.074,209.715L201.817,202.598C218.815,197.67 209.267,187.077 225.436,180.602C264.985,164.765 280.296,117.506 274.504,98.824L300.421,97.946C300.421,97.946 336.213,179.351 277.271,209.715Z" fill="#3F3D56"/>
<path d="M344.029,176.26C341.693,177.905 338.705,178.834 335.595,178.88C332.485,178.927 329.456,178.089 327.045,176.515L326.994,176.481L326.992,176.429C326.964,175.557 326.794,174.692 326.487,173.855C326.472,174.457 326.362,175.056 326.161,175.636L326.095,175.832L325.919,175.687C325.768,175.561 325.621,175.434 325.483,175.309C324.672,174.571 323.993,173.747 323.464,172.86C320.936,168.695 317.272,165.038 312.743,162.158C311.935,161.631 311.183,161.051 310.494,160.425C307.587,157.775 305.951,154.383 305.882,150.856C305.812,147.329 307.312,143.897 310.113,141.175C312.915,138.453 316.834,136.619 321.171,136.001C325.507,135.382 329.976,136.02 333.779,137.8L333.894,137.855L333.834,137.951C333.394,138.683 332.812,139.354 332.111,139.941C333.075,139.524 333.968,139.008 334.765,138.406L334.849,138.342L334.945,138.395C336.194,139.087 337.333,139.899 338.335,140.812L338.444,140.911C339.209,141.613 340.151,142.177 341.207,142.567C342.263,142.958 343.41,143.165 344.573,143.177C346.471,143.202 348.339,143.557 350.049,144.216C351.759,144.875 353.271,145.823 354.48,146.994C355.689,148.166 356.567,149.533 357.053,151.003C357.539,152.472 357.622,154.008 357.296,155.505L357.281,155.575L357.197,155.595C355.722,156.001 354.159,156.157 352.605,156.054C353.902,156.507 355.284,156.784 356.695,156.875L356.877,156.887L356.82,157.025C356.085,158.793 354.777,160.372 353.03,161.602L352.98,161.637C352.962,161.649 352.945,161.661 352.927,161.674C351.625,162.571 350.56,163.668 349.795,164.9C349.029,166.132 348.579,167.473 348.469,168.847C348.383,170.257 347.945,171.639 347.183,172.912C346.42,174.185 345.348,175.323 344.029,176.26Z" fill="#6C63FF"/>
<g opacity="0.15">
<path d="M346.421,172.877C346.397,173.256 346.348,173.634 346.273,174.009C347.554,172.434 348.291,170.615 348.409,168.738C348.426,168.451 348.464,168.164 348.514,167.879C347.27,169.365 346.547,171.091 346.421,172.877Z" fill="#000000"/>
</g>
<g opacity="0.15">
<path d="M350.556,160.085C351.6,160.447 352.699,160.696 353.825,160.825C354.259,160.459 354.659,160.067 355.023,159.655C353.586,160.04 352.066,160.186 350.556,160.085Z" fill="#000000"/>
</g>
<g opacity="0.15">
<path d="M355.373,156.629C355.489,157.539 355.458,158.456 355.28,159.36C355.903,158.6 356.4,157.779 356.759,156.917L356.817,156.778L356.634,156.766C356.211,156.737 355.79,156.692 355.373,156.629Z" fill="#000000"/>
</g>
<g opacity="0.15">
<path d="M354.157,146.64C352.948,145.541 351.465,144.655 349.804,144.04C348.144,143.425 346.341,143.094 344.512,143.068C343.349,143.057 342.202,142.849 341.146,142.459C340.09,142.068 339.148,141.504 338.383,140.803L338.275,140.704C337.272,139.79 336.133,138.978 334.884,138.286L334.789,138.234L334.704,138.297C333.907,138.899 333.015,139.416 332.05,139.833C332.752,139.246 333.333,138.574 333.774,137.842L333.834,137.746L333.718,137.692C331.197,136.51 328.363,135.823 325.447,135.685C322.532,135.548 319.617,135.964 316.94,136.901C314.264,137.838 311.902,139.268 310.047,141.075C308.192,142.882 306.896,145.014 306.267,147.299C307.48,145.592 309.104,144.095 311.044,142.895C312.985,141.694 315.204,140.814 317.573,140.306C319.941,139.797 322.412,139.67 324.842,139.932C327.272,140.194 329.614,140.839 331.73,141.831L331.846,141.885L331.786,141.981C331.345,142.713 330.764,143.385 330.062,143.972C331.027,143.555 331.919,143.039 332.717,142.436L332.801,142.373L332.896,142.425C334.145,143.117 335.284,143.929 336.287,144.843L336.395,144.942C337.161,145.643 338.102,146.208 339.158,146.598C340.214,146.988 341.361,147.196 342.524,147.207C345.566,147.249 348.495,148.133 350.812,149.711C353.13,151.288 354.693,153.461 355.234,155.858C355.877,155.765 356.512,155.642 357.136,155.487L357.221,155.466L357.236,155.397C357.577,153.846 357.477,152.253 356.944,150.737C356.411,149.221 355.459,147.821 354.157,146.64Z" fill="#000000"/>
</g>
<path d="M381.824,103.305C381.823,111.326 378.27,119.086 371.798,125.207C365.325,131.328 356.352,135.412 346.474,136.733L346.265,136.76L346.103,136.653C343.41,134.854 340.437,133.342 337.259,132.156C339.045,133.467 340.618,134.953 341.943,136.578L342.393,137.12L341.581,137.151C340.881,137.179 340.184,137.192 339.512,137.192C335.561,137.195 331.629,136.758 327.828,135.895C310.562,131.96 292.021,131.288 272.721,133.895C269.411,134.341 266.061,134.564 262.705,134.564C229.796,134.564 203.023,113.117 203.023,86.755C203.005,76.704 206.949,66.905 214.293,58.755C221.637,50.605 232.006,44.519 243.922,41.365L244.333,41.256L244.495,41.577C245.768,43.986 246.559,46.541 246.84,49.148C247.631,46.393 247.97,43.568 247.848,40.743L247.835,40.444L248.197,40.372C252.942,39.425 257.815,38.946 262.705,38.946L263.235,38.948C266.98,38.957 270.685,38.334 274.11,37.119C277.534,35.904 280.6,34.125 283.108,31.897C287.221,28.277 292.263,25.413 297.89,23.503C303.516,21.593 309.592,20.682 315.7,20.832C321.808,20.983 327.803,22.191 333.273,24.374C338.742,26.557 343.556,29.663 347.383,33.478L347.561,33.655L347.444,33.862C344.972,38.226 342.278,41.405 339.064,43.73C343.189,42.18 346.965,40.093 350.239,37.554L350.661,37.226L350.958,37.634C354.73,42.815 356.716,48.706 356.713,54.703L356.713,54.874C356.712,54.935 356.712,54.995 356.712,55.056C356.712,64.231 361.142,72.926 368.886,78.941C372.96,82.107 376.202,85.894 378.424,90.078C380.645,94.261 381.801,98.758 381.824,103.305Z" fill="#6C63FF"/>
<g opacity="0.15">
<path d="M330.095,23.222C328.636,25.161 326.841,26.925 324.764,28.46C327.738,27.341 330.535,25.942 333.094,24.29C332.112,23.903 331.113,23.547 330.095,23.222Z" fill="#000000"/>
<path d="M354.587,63.671C356.888,65.459 358.929,67.451 360.671,69.607C358.05,65.044 356.699,60.079 356.712,55.056C356.712,54.995 356.712,54.935 356.713,54.874L356.713,54.703C356.716,48.706 354.73,42.815 350.958,37.634L350.661,37.226L350.239,37.554C347.906,39.36 345.316,40.94 342.522,42.261C343.242,50.511 347.543,58.2 354.587,63.671Z" fill="#000000"/>
<path d="M342.414,39.433L342.413,39.604C342.413,39.665 342.413,39.726 342.413,39.786C342.413,40.119 342.42,40.45 342.432,40.782C344.425,38.635 346.106,36.313 347.444,33.862L347.562,33.655L347.383,33.478C345.151,31.254 342.58,29.262 339.729,27.549C341.504,31.35 342.413,35.375 342.414,39.433Z" fill="#000000"/>
<path d="M368.887,78.941C366.851,77.355 365.042,75.592 363.494,73.686C366.267,78.418 367.634,83.599 367.489,88.825C367.343,94.051 365.689,99.178 362.655,103.806C359.621,108.434 355.291,112.437 350.002,115.5C344.714,118.564 338.612,120.605 332.174,121.463L331.965,121.491L331.804,121.383C329.111,119.584 326.138,118.072 322.959,116.886C324.745,118.197 326.319,119.683 327.643,121.308L328.094,121.85L327.282,121.881C326.581,121.909 325.885,121.922 325.212,121.922C321.262,121.925 317.329,121.488 313.528,120.625C296.263,116.691 277.722,116.018 258.421,118.625C255.112,119.071 251.762,119.294 248.406,119.294C233.778,119.303 219.66,114.991 208.753,107.184C213.591,115.368 221.229,122.285 230.779,127.131C240.329,131.978 251.399,134.555 262.705,134.564C266.061,134.564 269.411,134.341 272.721,133.895C292.021,131.288 310.562,131.961 327.828,135.895C331.629,136.758 335.561,137.195 339.512,137.192C340.184,137.192 340.881,137.179 341.581,137.151L342.393,137.12L341.943,136.578C340.619,134.953 339.045,133.467 337.259,132.156C340.437,133.342 343.41,134.854 346.103,136.653L346.265,136.76L346.474,136.733C354.205,135.703 361.426,132.973 367.332,128.847C373.238,124.722 377.596,119.363 379.92,113.369C382.245,107.375 382.444,100.982 380.496,94.903C378.547,88.823 374.528,83.297 368.887,78.941Z" fill="#000000"/>
</g>
<path d="M169.757,94.729C167.479,92.764 166.298,89.814 167.509,87.315C169.323,89.843 172.195,91.776 175.617,92.772C176.938,93.152 178.458,93.464 179.179,94.429C179.596,95.053 179.698,95.781 179.464,96.464C179.229,97.138 178.886,97.786 178.445,98.391L178.443,98.566C175.227,97.819 172.034,96.694 169.757,94.729Z" fill="#6C63FF"/>
<path d="M282.883,151.737C280.605,149.771 279.424,146.822 280.635,144.322C282.449,146.851 285.321,148.784 288.743,149.779C290.064,150.159 291.584,150.472 292.305,151.437C292.722,152.061 292.824,152.789 292.59,153.471C292.355,154.146 292.012,154.794 291.571,155.399L291.569,155.573C288.353,154.827 285.16,153.702 282.883,151.737Z" fill="#6C63FF"/>
<path d="M336.226,188.53C334.635,186.171 334.412,183.079 336.366,180.901C337.332,183.713 339.509,186.16 342.511,187.81C343.672,188.443 345.045,189.05 345.442,190.128C345.651,190.816 345.522,191.542 345.082,192.155C344.644,192.761 344.109,193.32 343.493,193.817L343.437,193.986C340.557,192.619 337.817,190.89 336.226,188.53Z" fill="#6C63FF"/>
<path d="M374.676,142.975C373.085,140.616 372.863,137.524 374.816,135.346C375.782,138.158 377.959,140.605 380.961,142.254C382.122,142.887 383.495,143.494 383.892,144.573C384.101,145.261 383.972,145.986 383.533,146.6C383.094,147.206 382.56,147.765 381.943,148.262L381.887,148.431C379.007,147.064 376.267,145.334 374.676,142.975Z" fill="#6C63FF"/>
<path d="M123.32,160.536C121.729,158.176 121.507,155.084 123.461,152.907C124.427,155.718 126.604,158.165 129.606,159.815C130.766,160.448 132.14,161.055 132.537,162.133C132.745,162.821 132.617,163.547 132.177,164.161C131.738,164.767 131.204,165.325 130.588,165.822L130.532,165.991C127.651,164.624 124.911,162.895 123.32,160.536Z" fill="#E6E6E6"/>
<path d="M266.989,183.129C268.371,174.23 275.257,165.463 285.853,162.567C281.674,171.726 281.675,181.774 285.856,190.933C287.484,194.46 289.754,198.248 288.222,201.803C287.269,204.015 284.938,205.707 282.332,206.765C279.726,207.824 276.834,208.328 273.978,208.822L273.416,209.195C268.882,200.996 265.607,192.028 266.989,183.129Z" fill="#E6E6E6"/>
<path d="M285.958,162.735C279.787,168.273 275.952,175.227 274.997,182.609C274.756,184.196 274.829,185.803 275.213,187.371C275.649,188.889 276.584,190.286 277.922,191.416C279.142,192.491 280.546,193.476 281.42,194.769C281.855,195.437 282.109,196.17 282.165,196.921C282.221,197.673 282.078,198.425 281.746,199.129C280.974,200.901 279.454,202.345 277.907,203.715C276.188,205.237 274.373,206.796 273.643,208.814C273.554,209.058 273.086,208.934 273.174,208.69C274.445,205.18 278.7,203.186 280.729,200.024C281.676,198.549 282.073,196.836 281.186,195.279C280.409,193.917 278.963,192.899 277.715,191.82C276.39,190.733 275.417,189.402 274.882,187.944C274.4,186.396 274.25,184.794 274.439,183.206C274.792,179.626 275.846,176.113 277.563,172.795C279.495,169 282.224,165.497 285.632,162.439C285.843,162.25 286.168,162.547 285.958,162.735Z" fill="#FFFFFF"/>
<path d="M275.13,180.218C273.605,179.921 272.261,179.2 271.339,178.184C270.417,177.167 269.975,175.921 270.094,174.668C270.119,174.414 270.612,174.434 270.587,174.688C270.474,175.854 270.885,177.015 271.746,177.96C272.608,178.906 273.863,179.573 275.285,179.843C275.594,179.901 275.437,180.276 275.13,180.218Z" fill="#FFFFFF"/>
<path d="M277.213,190.937C279.967,189.62 282,187.52 282.907,185.056C282.996,184.812 283.465,184.936 283.375,185.18C282.426,187.743 280.305,189.925 277.435,191.29C277.161,191.42 276.941,191.066 277.213,190.937Z" fill="#FFFFFF"/>
<path d="M279.953,169.374C280.513,169.587 281.131,169.686 281.75,169.661C282.37,169.635 282.971,169.487 283.502,169.23C283.773,169.097 283.993,169.451 283.724,169.583C283.136,169.865 282.471,170.028 281.787,170.057C281.103,170.086 280.42,169.98 279.798,169.749C279.738,169.732 279.688,169.696 279.658,169.649C279.629,169.603 279.623,169.55 279.642,169.5C279.662,169.45 279.707,169.409 279.765,169.386C279.823,169.362 279.891,169.358 279.953,169.374Z" fill="#FFFFFF"/>
<path d="M318.152,178.461C317.986,178.548 317.819,178.634 317.653,178.724C315.421,179.9 313.312,181.218 311.347,182.667C311.193,182.777 311.039,182.891 310.889,183.004C306.201,186.535 302.373,190.732 299.598,195.382C298.496,197.233 297.572,199.149 296.833,201.113C295.812,203.824 294.975,206.83 292.956,209.048C292.748,209.281 292.523,209.504 292.281,209.715L274.027,209.715C273.985,209.698 273.943,209.685 273.902,209.668L273.173,209.695C273.202,209.592 273.235,209.485 273.265,209.381C273.281,209.321 273.302,209.261 273.319,209.201C273.331,209.161 273.344,209.121 273.352,209.085C273.356,209.071 273.36,209.058 273.364,209.048C273.373,209.011 273.385,208.978 273.394,208.944C273.577,208.347 273.766,207.75 273.96,207.153C273.96,207.15 273.96,207.15 273.964,207.147C275.459,202.6 277.442,198.114 280.211,194.011C280.295,193.888 280.378,193.761 280.47,193.638C281.731,191.794 283.178,190.036 284.797,188.381C285.687,187.477 286.634,186.61 287.633,185.782C290.221,183.649 293.212,181.855 296.496,180.466C303.043,177.697 310.623,176.636 317.619,178.328C317.798,178.371 317.974,178.414 318.152,178.461Z" fill="#E6E6E6"/>
<path d="M318.111,178.646C309.021,180.092 300.731,183.795 294.419,189.23C293.034,190.38 291.884,191.698 291.012,193.135C290.219,194.558 289.915,196.124 290.134,197.672C290.301,199.118 290.681,200.582 290.406,202.036C290.252,202.778 289.903,203.486 289.383,204.113C288.863,204.74 288.183,205.272 287.389,205.674C285.441,206.716 283.142,207.136 280.876,207.485C278.36,207.871 275.739,208.241 273.639,209.499C273.384,209.652 273.104,209.327 273.358,209.175C277.011,206.985 281.907,207.444 285.904,205.898C287.769,205.177 289.374,204.001 289.836,202.329C290.24,200.868 289.85,199.358 289.665,197.894C289.424,196.387 289.648,194.855 290.317,193.433C291.096,191.965 292.18,190.614 293.524,189.437C296.498,186.749 299.981,184.452 303.846,182.63C308.242,180.532 313.054,179.051 318.074,178.252C318.384,178.203 318.42,178.597 318.111,178.646Z" fill="#FFFFFF"/>
<path d="M296.323,187.384C295.328,186.412 294.798,185.188 294.825,183.932C294.853,182.675 295.438,181.468 296.475,180.525C296.685,180.334 297.064,180.587 296.853,180.778C295.886,181.655 295.341,182.78 295.319,183.95C295.296,185.12 295.796,186.258 296.729,187.159C296.931,187.355 296.524,187.579 296.323,187.384Z" fill="#FFFFFF"/>
<path d="M289.928,196.947C293.117,197.224 296.319,196.527 298.895,194.997C299.151,194.845 299.431,195.17 299.176,195.322C296.492,196.91 293.158,197.63 289.84,197.336C289.524,197.308 289.614,196.919 289.928,196.947Z" fill="#FFFFFF"/>
<path d="M308.326,181.052C308.613,181.492 309.032,181.868 309.546,182.147C310.059,182.425 310.651,182.597 311.268,182.648C311.584,182.673 311.494,183.061 311.18,183.036C310.498,182.979 309.845,182.788 309.277,182.481C308.709,182.174 308.243,181.761 307.92,181.277C307.885,181.233 307.872,181.18 307.884,181.129C307.895,181.078 307.931,181.033 307.983,181.002C308.037,180.972 308.103,180.961 308.167,180.97C308.231,180.98 308.289,181.009 308.326,181.052Z" fill="#FFFFFF"/>
<path d="M174.333,184.349L159.182,175.137L151.798,181.051L176.479,194.578L174.333,184.349Z" fill="#3F3D56"/>
<path d="M188.463,209.715L240.289,209.715L238.472,204.998C227.206,201.732 233.534,194.711 222.818,190.42C196.606,179.924 186.459,148.602 190.297,136.22L173.12,135.638C173.12,135.638 149.398,189.591 188.463,209.715Z" fill="#3F3D56"/>
<path d="M141.275,182.629C141.203,181.719 140.904,180.83 140.397,180.013C139.89,179.197 139.184,178.47 138.321,177.875C138.309,177.867 138.298,177.858 138.286,177.85L138.253,177.827C137.095,177.012 136.228,175.965 135.741,174.794L135.703,174.702L135.824,174.694C136.759,174.634 137.675,174.451 138.535,174.151C137.505,174.219 136.468,174.115 135.491,173.846L135.435,173.833L135.425,173.787C135.209,172.794 135.264,171.776 135.587,170.802C135.909,169.829 136.491,168.922 137.292,168.146C138.093,167.369 139.095,166.741 140.229,166.304C141.362,165.868 142.6,165.633 143.858,165.616C144.629,165.608 145.389,165.47 146.089,165.212C146.789,164.953 147.413,164.579 147.92,164.114L147.992,164.049C148.656,163.443 149.411,162.905 150.239,162.446L150.302,162.412L150.358,162.454C150.887,162.853 151.478,163.195 152.117,163.471C151.652,163.082 151.267,162.637 150.975,162.152L150.935,162.088L151.012,162.052C153.532,160.873 156.494,160.45 159.368,160.86C162.242,161.269 164.84,162.485 166.696,164.289C168.553,166.093 169.547,168.368 169.501,170.705C169.455,173.043 168.371,175.291 166.444,177.047C165.988,177.462 165.489,177.847 164.953,178.196C161.952,180.104 159.524,182.528 157.848,185.289C157.498,185.877 157.047,186.423 156.51,186.912C156.418,186.995 156.321,187.079 156.221,187.162L156.104,187.258L156.061,187.129C155.927,186.744 155.854,186.347 155.844,185.948C155.641,186.503 155.529,187.076 155.51,187.654L155.508,187.689L155.475,187.711C154.225,188.528 152.717,189.051 151.118,189.221C149.519,189.391 147.892,189.202 146.419,188.675C144.947,188.148 143.686,187.303 142.777,186.236C141.869,185.168 141.349,183.919 141.275,182.629Z" fill="#E6E6E6"/>
<g opacity="0.15">
<path d="M142.633,185.3C142.649,185.551 142.682,185.802 142.731,186.05C141.882,185.006 141.394,183.801 141.316,182.557C141.304,182.366 141.279,182.177 141.246,181.988C142.07,182.972 142.55,184.116 142.633,185.3Z" fill="#000000"/>
</g>
<g opacity="0.15">
<path d="M139.892,176.822C139.201,177.062 138.472,177.227 137.726,177.312C137.438,177.07 137.173,176.81 136.932,176.537C137.884,176.792 138.892,176.889 139.892,176.822Z" fill="#000000"/>
</g>
<g opacity="0.15">
<path d="M136.7,174.531C136.623,175.134 136.644,175.743 136.762,176.341C136.349,175.838 136.019,175.294 135.782,174.722L135.743,174.63L135.864,174.622C136.144,174.603 136.423,174.573 136.7,174.531Z" fill="#000000"/>
</g>
<g opacity="0.15">
<path d="M137.506,167.911C138.307,167.183 139.29,166.596 140.391,166.188C141.491,165.781 142.686,165.561 143.898,165.544C144.669,165.536 145.429,165.399 146.129,165.14C146.829,164.881 147.453,164.507 147.96,164.042L148.032,163.977C148.697,163.371 149.451,162.833 150.279,162.375L150.343,162.34L150.398,162.382C150.927,162.781 151.518,163.123 152.157,163.4C151.693,163.011 151.307,162.565 151.015,162.08L150.975,162.016L151.052,161.98C152.723,161.197 154.601,160.742 156.533,160.651C158.466,160.56 160.398,160.836 162.172,161.456C163.946,162.077 165.511,163.025 166.741,164.223C167.97,165.42 168.828,166.834 169.246,168.347C168.442,167.216 167.365,166.224 166.079,165.429C164.793,164.633 163.322,164.05 161.753,163.713C160.183,163.376 158.545,163.292 156.935,163.465C155.324,163.639 153.772,164.066 152.37,164.724L152.293,164.76L152.333,164.823C152.625,165.309 153.01,165.754 153.475,166.143C152.836,165.866 152.244,165.524 151.716,165.125L151.66,165.083L151.597,165.118C150.769,165.576 150.014,166.114 149.349,166.72L149.278,166.786C148.77,167.25 148.146,167.624 147.446,167.883C146.746,168.142 145.986,168.279 145.215,168.287C143.2,168.314 141.259,168.901 139.723,169.946C138.186,170.992 137.151,172.431 136.792,174.02C136.366,173.959 135.945,173.877 135.531,173.775L135.475,173.761L135.465,173.715C135.239,172.687 135.305,171.631 135.658,170.626C136.012,169.622 136.643,168.694 137.506,167.911Z" fill="#000000"/>
</g>
<path d="M127.744,123.042C132.876,119.056 135.812,113.293 135.812,107.212C135.812,107.172 135.812,107.132 135.812,107.092L135.812,106.979C135.81,103.004 137.126,99.099 139.626,95.665L139.823,95.395L140.103,95.613C142.272,97.295 144.775,98.679 147.509,99.706C145.379,98.165 143.594,96.058 141.955,93.166L141.877,93.028L141.995,92.911C144.532,90.383 147.722,88.324 151.347,86.877C154.972,85.43 158.945,84.63 162.994,84.53C167.042,84.431 171.069,85.035 174.798,86.3C178.527,87.566 181.869,89.464 184.595,91.863C186.257,93.34 188.289,94.519 190.558,95.324C192.828,96.13 195.284,96.543 197.766,96.537L198.117,96.536C201.358,96.535 204.587,96.852 207.732,97.48L207.972,97.528L207.964,97.726C207.883,99.598 208.107,101.471 208.632,103.297C208.818,101.569 209.342,99.876 210.186,98.279L210.294,98.067L210.566,98.139C219.486,100.51 227.062,105.346 231.936,111.783C236.81,118.219 238.665,125.835 237.167,133.267C235.669,140.698 230.917,147.46 223.762,152.341C216.607,157.223 207.516,159.905 198.117,159.908C195.893,159.908 193.672,159.759 191.479,159.464C178.687,157.736 166.399,158.182 154.956,160.789C152.437,161.362 149.831,161.651 147.212,161.649C146.767,161.649 146.305,161.64 145.84,161.622L145.302,161.602L145.601,161.242C146.479,160.165 147.522,159.181 148.705,158.312C146.599,159.098 144.628,160.1 142.844,161.292L142.736,161.363L142.598,161.345C137.474,160.663 132.688,158.853 128.774,156.119C124.86,153.385 121.971,149.833 120.431,145.86C118.89,141.888 118.758,137.65 120.049,133.621C121.341,129.592 124.005,125.93 127.744,123.042Z" fill="#E6E6E6"/>
<g opacity="0.15">
<path d="M153.453,86.114C154.42,87.399 155.61,88.568 156.986,89.585C155.015,88.844 153.162,87.916 151.466,86.822C152.116,86.565 152.779,86.329 153.453,86.114Z" fill="#000000"/>
<path d="M137.221,112.922C135.696,114.107 134.343,115.427 133.189,116.856C134.926,113.832 135.821,110.541 135.812,107.212C135.812,107.172 135.812,107.132 135.812,107.092L135.811,106.979C135.81,103.004 137.126,99.099 139.626,95.665L139.823,95.395L140.103,95.613C141.649,96.81 143.365,97.857 145.217,98.732C144.74,104.2 141.889,109.296 137.221,112.922Z" fill="#000000"/>
<path d="M145.289,96.858L145.289,96.972C145.29,97.012 145.29,97.052 145.29,97.092C145.29,97.312 145.285,97.532 145.277,97.752C143.956,96.329 142.842,94.79 141.955,93.166L141.877,93.028L141.995,92.911C143.475,91.437 145.179,90.117 147.068,88.982C145.892,91.501 145.289,94.169 145.289,96.858Z" fill="#000000"/>
<path d="M127.744,123.042C129.093,121.991 130.291,120.823 131.318,119.56C129.48,122.696 128.574,126.13 128.67,129.593C128.766,133.057 129.863,136.455 131.874,139.522C133.884,142.59 136.754,145.242 140.259,147.273C143.764,149.303 147.808,150.656 152.075,151.225L152.214,151.243L152.321,151.171C154.106,149.979 156.076,148.977 158.183,148.191C156.999,149.06 155.956,150.045 155.078,151.122L154.78,151.481L155.318,151.502C155.782,151.52 156.244,151.529 156.689,151.529C159.308,151.531 161.914,151.241 164.433,150.669C175.876,148.062 188.165,147.616 200.956,149.344C203.15,149.639 205.37,149.787 207.594,149.787C217.289,149.793 226.646,146.935 233.874,141.761C230.668,147.185 225.606,151.769 219.277,154.981C212.947,158.194 205.61,159.902 198.117,159.908C195.893,159.908 193.672,159.759 191.479,159.464C178.687,157.736 166.399,158.182 154.956,160.789C152.437,161.362 149.831,161.651 147.212,161.649C146.767,161.649 146.305,161.64 145.84,161.622L145.302,161.601L145.601,161.242C146.479,160.165 147.522,159.181 148.705,158.312C146.599,159.098 144.628,160.099 142.844,161.292L142.736,161.363L142.598,161.345C137.474,160.662 132.688,158.853 128.774,156.119C124.86,153.384 121.971,149.833 120.431,145.86C118.89,141.888 118.758,137.65 120.049,133.621C121.341,129.592 124.004,125.93 127.744,123.042Z" fill="#000000"/>
</g>
<path d="M19.946,185.444C15.414,185.443 11.029,184.156 7.57,181.81C4.112,179.464 1.804,176.212 1.058,172.632L1.042,172.556L1.103,172.498C2.12,171.522 2.974,170.444 3.644,169.292C2.903,169.94 2.064,170.51 1.146,170.99L0.839,171.153L0.822,170.859C0.806,170.605 0.798,170.353 0.798,170.109C0.797,168.677 1.044,167.252 1.532,165.874C3.755,159.617 4.135,152.897 2.661,145.902C2.41,144.703 2.283,143.489 2.283,142.272C2.286,137.132 4.572,132.161 8.734,128.248C12.895,124.336 18.66,121.737 24.996,120.918C31.331,120.099 37.824,121.113 43.311,123.779C48.799,126.444 52.922,130.587 54.943,135.465L55.005,135.614L54.824,135.672C53.462,136.134 52.019,136.421 50.546,136.522C52.103,136.809 53.699,136.932 55.295,136.888L55.464,136.883L55.505,137.014C56.04,138.734 56.31,140.5 56.31,142.272L56.309,142.464C56.304,143.822 56.656,145.165 57.343,146.406C58.029,147.647 59.035,148.758 60.293,149.667C62.339,151.157 63.957,152.985 65.036,155.024C66.115,157.063 66.63,159.265 66.545,161.479C66.46,163.693 65.778,165.865 64.544,167.848C63.311,169.83 61.556,171.575 59.4,172.962L59.3,173.026L59.183,172.984C56.717,172.088 54.921,171.112 53.607,169.946C54.483,171.442 55.662,172.81 57.097,173.997L57.282,174.15L57.052,174.257C54.124,175.624 50.796,176.344 47.407,176.343L47.31,176.343C47.276,176.343 47.242,176.343 47.208,176.343C44.705,176.322 42.222,176.701 39.904,177.459C37.587,178.216 35.482,179.337 33.712,180.755C31.923,182.231 29.784,183.406 27.42,184.212C25.056,185.017 22.515,185.436 19.946,185.444Z" fill="#E4E4E4"/>
<path d="M13.17,209.606C13.087,209.606 13.006,209.581 12.943,209.538C12.881,209.494 12.84,209.434 12.828,209.368C12.813,209.285 11.375,200.979 12.667,189.939C13.86,179.744 17.69,165.059 29.164,152.998C29.192,152.969 29.226,152.945 29.265,152.927C29.305,152.909 29.348,152.897 29.393,152.892C29.438,152.887 29.484,152.889 29.528,152.898C29.572,152.908 29.613,152.924 29.649,152.946C29.685,152.968 29.715,152.995 29.738,153.027C29.761,153.058 29.776,153.093 29.782,153.129C29.788,153.165 29.785,153.202 29.774,153.237C29.762,153.272 29.742,153.305 29.714,153.334C18.339,165.29 14.539,179.867 13.355,189.991C12.071,200.966 13.498,209.208 13.512,209.29C13.519,209.329 13.516,209.369 13.501,209.407C13.487,209.445 13.463,209.48 13.431,209.51C13.398,209.54 13.358,209.564 13.313,209.581C13.268,209.597 13.219,209.606 13.17,209.606Z" fill="#3F3D56"/>
<path d="M18.906,168.946C18.833,168.946 18.762,168.927 18.703,168.893C18.643,168.859 18.599,168.81 18.577,168.755C18.554,168.699 18.554,168.639 18.577,168.584C18.599,168.528 18.643,168.479 18.702,168.445C21.972,166.673 25.504,165.233 29.217,164.158C35.018,162.457 43.84,160.915 52.922,163.23C52.965,163.241 53.005,163.259 53.04,163.282C53.075,163.306 53.103,163.334 53.124,163.367C53.145,163.399 53.158,163.434 53.162,163.47C53.166,163.507 53.161,163.543 53.147,163.578C53.133,163.613 53.111,163.645 53.082,163.673C53.052,163.7 53.016,163.723 52.976,163.74C52.936,163.757 52.891,163.767 52.846,163.77C52.801,163.773 52.755,163.769 52.712,163.757C43.816,161.49 35.155,163.007 29.455,164.678C25.801,165.734 22.326,167.15 19.109,168.893C19.05,168.927 18.979,168.946 18.906,168.946Z" fill="#3F3D56"/>
<path d="M55.947,157.461C56.346,157.374 56.716,157.217 57.032,157.003C57.347,156.789 57.6,156.522 57.773,156.221C57.946,155.92 58.034,155.593 58.032,155.261C58.029,154.93 57.936,154.603 57.759,154.304L63.856,138.384L59.372,137.672L53.795,153.277C53.187,153.549 52.724,153.989 52.495,154.516C52.266,155.043 52.285,155.618 52.551,156.134C52.816,156.65 53.308,157.07 53.934,157.314C54.56,157.559 55.276,157.611 55.947,157.461Z" fill="#FFB6B6"/>
<path d="M64.212,133.732C63.564,133.527 62.852,133.492 62.179,133.633L62.179,133.637C61.952,133.68 61.732,133.746 61.524,133.831C61.297,133.921 61.084,134.033 60.89,134.164C60.472,134.442 60.15,134.8 59.952,135.206L56.981,139.352C56.895,139.47 56.843,139.601 56.827,139.736C56.812,139.872 56.833,140.009 56.89,140.137C56.946,140.266 57.036,140.383 57.154,140.482C57.272,140.58 57.415,140.657 57.573,140.707L58.215,140.908L61.265,141.867L62.388,142.223L63.146,142.46C63.304,142.511 63.474,142.533 63.644,142.525C63.814,142.518 63.979,142.481 64.13,142.417C64.28,142.354 64.412,142.265 64.516,142.157C64.619,142.049 64.692,141.924 64.73,141.791L66.072,137.147C66.389,136.497 66.372,135.772 66.023,135.132C65.674,134.492 65.023,133.988 64.212,133.732Z" fill="#3F3D56"/>
<path d="M73.048,205.371L76.153,205.371L77.631,195.78L73.048,195.78L73.048,205.371Z" fill="#FFB6B6"/>
<path d="M71.41,209.679L73.636,209.679L74.034,207.995L75.051,209.679L80.956,209.679C81.239,209.679 81.515,209.606 81.743,209.472C81.971,209.337 82.139,209.148 82.224,208.932C82.308,208.715 82.304,208.483 82.211,208.269C82.119,208.055 81.944,207.869 81.711,207.741L76.995,205.132L76.995,203.431L72.035,203.668L71.41,209.679Z" fill="#2F2E41"/>
<path d="M42.856,200.437L45.526,201.706L52.905,194.06L48.964,192.188L42.856,200.437Z" fill="#FFB6B6"/>
<path d="M38.702,203.473L40.617,204.383L42.031,203.097L41.835,204.961L46.914,207.373C47.157,207.489 47.44,207.539 47.722,207.517C48.004,207.494 48.269,207.401 48.479,207.249C48.689,207.097 48.834,206.895 48.891,206.673C48.948,206.451 48.915,206.221 48.797,206.015L46.402,201.845L47.486,200.381L43.069,198.559L38.702,203.473Z" fill="#2F2E41"/>
<path d="M74.434,144.05L75.943,151.753L61.61,151.904L63.497,144.503L74.434,144.05Z" fill="#FFB6B6"/>
<path d="M75.998,151.655L80.092,159.607L80.39,180.87L76.896,201.172L73.03,201.172L71.447,181.201L67.551,167.536L63.709,181.828L51.761,195.817L45.891,195.817L56.684,180.402L57.933,163.609C57.933,163.609 57.155,156.485 61.139,152.281L62.109,150.037L75.998,151.655Z" fill="#2F2E41"/>
<path d="M76.196,136.956C76.188,136.887 76.176,136.814 76.159,136.745C75.849,135.083 74.73,133.587 73.046,132.584C71.363,131.582 69.251,131.154 67.175,131.395C65.225,131.629 63.448,132.425 62.179,133.634L62.179,133.637C62.113,133.699 62.051,133.765 61.989,133.831C61.878,133.943 61.775,134.062 61.676,134.181C60.784,135.26 60.325,136.532 60.359,137.826L60.359,137.829C60.372,138.328 60.459,138.824 60.619,139.306C60.893,140.15 61.109,141.005 61.265,141.867C61.372,142.414 61.454,142.952 61.516,143.476C61.553,143.739 61.582,144 61.607,144.254L61.607,144.257C61.73,145.513 61.771,146.64 61.808,147.514C61.825,147.988 61.841,148.384 61.87,148.687C61.871,148.707 61.873,148.727 61.878,148.746C61.91,148.95 62.019,149.141 62.191,149.293C62.212,149.315 62.235,149.335 62.261,149.353C62.443,149.484 62.664,149.577 62.903,149.623C62.986,149.636 63.07,149.643 63.154,149.643L63.179,149.643L65.578,148.746L67.471,148.041L73.896,145.641C74.159,145.637 74.414,145.568 74.628,145.445C74.841,145.321 75.002,145.148 75.089,144.949L75.089,144.946C75.097,144.919 75.11,144.893 75.118,144.863C75.464,143.772 76.077,142.602 76.295,140.72C76.324,140.45 76.349,140.17 76.361,139.87L76.361,139.866C76.397,138.894 76.342,137.921 76.196,136.956Z" fill="#3F3D56"/>
<path d="M67.274,130.353C70.621,130.353 73.334,128.18 73.334,125.5C73.334,122.819 70.621,120.646 67.274,120.646C63.927,120.646 61.214,122.819 61.214,125.5C61.214,128.18 63.927,130.353 67.274,130.353Z" fill="#FFB6B6"/>
<path d="M60.804,133.043C59.527,133.045 58.304,133.452 57.401,134.174C56.498,134.897 55.99,135.878 55.989,136.9L55.989,144.893C55.988,145.792 56.38,146.662 57.096,147.354C57.813,148.045 58.808,148.515 59.911,148.68L59.915,148.68C60.208,148.724 60.506,148.746 60.804,148.746L67.471,148.746L67.471,133.043L60.804,133.043Z" fill="#6C63FF"/>
<path d="M60.89,133.831L60.89,139.662C60.89,139.84 60.979,140.011 61.136,140.138C61.294,140.264 61.507,140.334 61.73,140.334C61.953,140.334 62.166,140.264 62.324,140.138C62.481,140.011 62.57,139.84 62.57,139.662L62.57,133.831L60.89,133.831Z" fill="#3F3D56"/>
<path d="M64.59,143.476L59.709,143.476C59.57,143.476 59.432,143.498 59.304,143.541C59.175,143.583 59.058,143.646 58.96,143.725C58.862,143.804 58.784,143.898 58.731,144.001C58.678,144.104 58.651,144.215 58.652,144.326L58.652,146.663C58.651,146.888 58.763,147.104 58.961,147.263C59.159,147.423 59.428,147.513 59.709,147.513L64.59,147.513C64.872,147.513 65.141,147.423 65.34,147.264C65.539,147.104 65.652,146.888 65.652,146.663L65.652,144.326C65.652,144.214 65.625,144.104 65.571,144.001C65.518,143.898 65.44,143.804 65.341,143.725C65.243,143.646 65.126,143.583 64.997,143.54C64.868,143.498 64.73,143.476 64.59,143.476Z" fill="#3F3D56"/>
<path d="M73.607,142.736C74.938,141.383 75.641,139.702 75.595,137.98C75.595,134.516 73.019,131.699 69.853,131.699C68.154,131.699 66.553,132.512 65.46,133.931L65.937,134.166C66.925,132.883 68.353,132.148 69.853,132.148C72.71,132.148 75.035,134.764 75.035,137.98C75.081,139.596 74.426,141.175 73.18,142.446L73.607,142.736Z" fill="#6C63FF"/>
<path d="M86.813,154.463C86.996,154.166 87.096,153.841 87.105,153.509C87.114,153.178 87.032,152.85 86.866,152.546C86.699,152.243 86.451,151.973 86.14,151.755C85.829,151.537 85.462,151.376 85.065,151.283L74.228,137.072L70.589,139.288L81.476,152.979C81.327,153.523 81.432,154.093 81.772,154.58C82.112,155.067 82.663,155.436 83.321,155.619C83.979,155.802 84.698,155.786 85.341,155.573C85.985,155.36 86.509,154.965 86.813,154.463Z" fill="#FFB6B6"/>
<path d="M77.991,138.805L76.159,136.745L75.18,135.644L74.542,134.926C74.342,134.609 74.063,134.329 73.723,134.102C73.142,133.712 72.412,133.495 71.655,133.487C70.898,133.479 70.161,133.68 69.568,134.056C68.974,134.432 68.561,134.961 68.397,135.553C68.233,136.145 68.329,136.764 68.669,137.305L70.57,141.838C70.625,141.967 70.714,142.085 70.831,142.184C70.948,142.283 71.09,142.361 71.248,142.412C71.405,142.463 71.575,142.487 71.745,142.481C71.915,142.475 72.081,142.44 72.233,142.378L72.846,142.128L73.813,141.732L74.682,141.379L74.686,141.379L76.295,140.72L76.842,140.499L77.567,140.203C77.718,140.14 77.851,140.052 77.956,139.945C78.061,139.838 78.136,139.714 78.176,139.581C78.217,139.449 78.221,139.311 78.189,139.177C78.157,139.043 78.089,138.916 77.991,138.805Z" fill="#3F3D56"/>
<path d="M364.365,210L1.177,210C1.127,210 1.078,209.992 1.032,209.977C0.986,209.962 0.944,209.94 0.909,209.912C0.873,209.883 0.845,209.85 0.826,209.813C0.807,209.776 0.797,209.737 0.797,209.697C0.797,209.657 0.807,209.618 0.826,209.581C0.845,209.544 0.873,209.51 0.909,209.482C0.944,209.454 0.986,209.432 1.032,209.417C1.078,209.402 1.127,209.394 1.177,209.394L364.365,209.394C364.465,209.394 364.561,209.426 364.633,209.483C364.703,209.54 364.743,209.617 364.743,209.697C364.743,209.777 364.703,209.854 364.633,209.911C364.561,209.968 364.465,210 364.365,210Z" fill="#CCCCCC"/>
<path d="M193.285,184.597C191.694,182.238 191.472,179.146 193.426,176.968C194.392,179.78 196.569,182.227 199.571,183.877C200.731,184.509 202.105,185.117 202.502,186.195C202.71,186.883 202.582,187.608 202.142,188.222C201.703,188.828 201.169,189.387 200.553,189.884L200.497,190.053C197.616,188.686 194.876,186.957 193.285,184.597Z" fill="#E6E6E6"/>
<path d="M95.746,124.937C94.155,122.578 93.933,119.486 95.886,117.308C96.852,120.12 99.029,122.567 102.031,124.217C103.192,124.849 104.565,125.457 104.962,126.535C105.171,127.223 105.042,127.948 104.603,128.562C104.164,129.168 103.63,129.727 103.013,130.224L102.957,130.393C100.077,129.026 97.337,127.297 95.746,124.937Z" fill="#E6E6E6"/>
<path d="M63.578,121.54L63.578,121.543C63.579,121.754 63.545,121.965 63.478,122.169C63.467,122.205 63.454,122.242 63.44,122.278L63.44,122.28C63.297,122.644 63.05,122.978 62.72,123.253C62.389,123.529 61.984,123.74 61.534,123.869C61.468,123.889 61.4,123.906 61.332,123.922C61.189,123.955 61.042,123.979 60.894,123.993C60.76,124.008 60.626,124.016 60.491,124.015C60.386,124.016 60.281,124.012 60.176,124.003C59.931,123.984 59.69,123.939 59.459,123.872C59.423,123.864 59.387,123.853 59.352,123.841C59.335,123.837 59.318,123.831 59.301,123.824C58.915,123.695 58.566,123.504 58.275,123.263C57.983,123.022 57.756,122.736 57.607,122.423C57.458,122.11 57.39,121.776 57.407,121.441C57.424,121.106 57.526,120.777 57.707,120.474L57.709,120.473C57.86,120.219 58.066,119.988 58.316,119.791C58.893,119.329 59.676,119.07 60.491,119.071C60.532,119.071 60.572,119.072 60.613,119.075C61.082,119.09 61.541,119.191 61.955,119.37C62.369,119.548 62.727,119.8 63.001,120.106C63.239,120.37 63.408,120.669 63.499,120.986C63.551,121.167 63.578,121.353 63.578,121.54Z" fill="#2F2E41"/>
<path d="M60.016,120.041C59.744,119.222 59.158,118.492 58.34,117.954C57.521,117.417 56.513,117.1 55.456,117.047C54.4,116.995 53.35,117.21 52.455,117.662C51.561,118.114 50.866,118.781 50.47,119.567C49.807,120.884 50.05,122.379 49.653,123.763C49.253,125.02 48.349,126.137 47.08,126.943C45.811,127.749 44.247,128.199 42.627,128.225L48.635,130.164C49.276,130.427 49.996,130.543 50.714,130.501C51.76,130.359 52.487,129.56 52.781,128.744C53.076,127.928 53.052,127.062 53.238,126.226C53.48,125.199 54.031,124.235 54.844,123.417C55.656,122.599 56.705,121.952 57.9,121.532C58.576,121.3 59.328,121.126 59.806,120.678C60.284,120.231 60.258,119.386 59.565,119.189Z" fill="#2F2E41"/>
<path d="M69.751,120.06C68.936,118.634 66.786,118.924 64.842,119.112C63.871,119.232 62.951,119.54 62.163,120.009C61.374,120.477 60.74,121.093 60.315,121.803C59.484,123.24 59.325,124.869 59.867,126.393C60.158,127.431 60.852,128.368 61.85,129.07C62.877,129.731 67.703,131.295 68.105,129.948C67.603,131.705 68.613,131.43 70.109,132.777C70.884,130.913 71.247,127.401 72.022,125.537L72.372,124.695C72.618,124.104 72.864,123.512 73.041,122.905C73.264,122.142 73.35,121.268 72.759,120.645C72.168,120.021 70.678,119.997 70.379,120.742Z" fill="#2F2E41"/>
<path d="M68.776,125.995L68.517,124.675C68.693,123.032 68.405,120.419 69.751,120.06L70.574,120.719C70.054,120.858 69.063,123.315 68.776,125.995Z" fill="#FF6584"/>
</svg>
