<svg width="412" height="224" viewBox="0 0 412 224" fill="none" xmlns="http://www.w3.org/2000/svg" xmlns:xlink="http://www.w3.org/1999/xlink">
<path d="M412,0.198L0.176,0.198L0.176,224L412,224L412,0.198Z" fill="#E6E6E6"/>
<path d="M400.224,28.269L11.952,28.269L11.952,210.76L400.224,210.76L400.224,28.269Z" fill="#FFFFFF"/>
<path d="M411.824,0L0,0L0,14.846L411.824,14.846L411.824,0Z" fill="#6C63FF"/>
<path d="M366.869,48.239L225.539,48.239L225.539,163.994L366.869,163.994L366.869,48.239Z" fill="#E6E6E6"/>
<path d="M13.001,10.341C14.792,10.341 16.244,9.11 16.244,7.59C16.244,6.07 14.792,4.838 13.001,4.838C11.211,4.838 9.759,6.07 9.759,7.59C9.759,9.11 11.211,10.341 13.001,10.341Z" fill="#FFFFFF"/>
<path d="M25.31,10.341C27.101,10.341 28.553,9.11 28.553,7.59C28.553,6.07 27.101,4.838 25.31,4.838C23.519,4.838 22.067,6.07 22.067,7.59C22.067,9.11 23.519,10.341 25.31,10.341Z" fill="#FFFFFF"/>
<path d="M37.619,10.341C39.409,10.341 40.861,9.11 40.861,7.59C40.861,6.07 39.409,4.838 37.619,4.838C35.828,4.838 34.376,6.07 34.376,7.59C34.376,9.11 35.828,10.341 37.619,10.341Z" fill="#FFFFFF"/>
<path d="M79.498,48.001L41.81,48.001L41.81,79.98L79.498,79.98L79.498,48.001Z" fill="#6C63FF"/>
<path d="M131.908,48.184L94.22,48.184L94.22,80.163L131.908,80.163L131.908,48.184Z" fill="#E6E6E6"/>
<path d="M132.057,92.112L94.37,92.112L94.37,198.522L132.057,198.522L132.057,92.112Z" fill="#6C63FF"/>
<path d="M78.47,91.875L40.782,91.875L40.782,146.318L78.47,146.318L78.47,91.875Z" fill="#E6E6E6"/>
<path d="M295.249,66.523C289.042,57.626 276.768,57.212 276.768,57.212C276.768,57.212 264.807,55.914 257.133,69.463C249.981,82.091 240.11,94.283 255.545,97.241L258.333,89.878L260.06,97.788C262.258,97.923 264.462,97.955 266.664,97.884C283.193,97.432 298.933,98.017 298.427,92.986C297.751,86.294 301.219,75.082 295.249,66.523Z" fill="#2F2E41"/>
<path d="M252.891,150.997L231.966,163.326C231.966,163.326 219.759,174.177 228.478,174.177C237.197,174.177 240.685,164.806 240.685,164.806L267.422,154.942L252.891,150.997Z" fill="#FFB8B8"/>
<path d="M261.319,102.909C261.319,102.909 243.009,150.999 248.821,153.464C254.634,155.929 267.421,157.41 267.421,157.41L261.319,102.909Z" fill="#2F2E41"/>
<g opacity="0.1">
<path d="M261.319,102.909C261.319,102.909 243.009,150.999 248.821,153.464C254.634,155.929 267.421,157.41 267.421,157.41L261.319,102.909Z" fill="#000000"/>
</g>
<path d="M318.881,163.576L277.664,163.576L306.947,150.999C307.593,151.354 308.212,151.743 308.802,152.163C313.144,155.265 316.592,159.169 318.881,163.576Z" fill="#2F2E41"/>
<path d="M272.944,90.578C281.29,90.578 288.056,84.837 288.056,77.754C288.056,70.672 281.29,64.931 272.944,64.931C264.598,64.931 257.832,70.672 257.832,77.754C257.832,84.837 264.598,90.578 272.944,90.578Z" fill="#FFB8B8"/>
<path d="M272.653,88.359C272.653,88.359 276.141,97.73 272.653,101.183C269.166,104.635 291.835,96.25 291.835,96.25C291.835,96.25 283.698,86.386 286.022,81.947L272.653,88.359Z" fill="#FFB8B8"/>
<path d="M306.133,131.175L304.912,137.927C304.912,137.927 305.528,139.461 306.278,141.696C307.254,144.611 308.458,148.717 308.8,152.162C309.155,155.654 308.62,158.465 306.074,158.642C302.424,158.899 300.523,160.778 298.628,163.575L256.58,163.575C256.69,162.036 256.824,160.438 256.981,158.795C257.068,157.809 257.164,156.809 257.27,155.797C257.386,154.633 261.503,132.768 258.409,128.063C252.017,118.347 260.153,112.774 260.153,112.774C260.153,112.774 261.315,105.375 261.315,102.909C261.315,100.976 270.243,98.742 274.103,97.864C274.353,97.809 274.574,97.755 274.777,97.716C275.445,97.568 275.846,97.484 275.846,97.484L278.898,96.423C278.898,96.423 287.471,95.017 288.053,94.03C288.424,93.605 288.945,93.291 289.541,93.132C290.767,92.688 292.331,92.372 292.703,92.057C293.234,91.539 293.714,90.984 294.139,90.399C295.253,89.315 296.756,88.569 298.417,88.277C304.659,86.94 313.628,89.589 313.628,89.589L310.489,106.975L306.133,131.175Z" fill="#2F2E41"/>
<path d="M324.386,120.418L303.46,132.747C303.46,132.747 291.254,143.598 299.973,143.598C308.692,143.598 312.177,134.228 312.177,134.228L338.914,124.364L324.386,120.418Z" fill="#FFB8B8"/>
<path d="M288.436,65.665L276.309,60.276L268.703,61.276C266.007,61.631 263.499,62.666 261.506,64.246C259.512,65.826 258.124,67.877 257.522,70.135L256.098,75.466L264.723,75.184L267.133,70.413L267.133,75.105L271.113,74.976L273.423,67.38L274.866,75.465L289.015,75.221L288.436,65.665Z" fill="#2F2E41"/>
<path d="M309.563,90.578L313.632,89.592C313.632,89.592 354.901,103.895 353.739,116.226C352.576,128.556 354.32,128.554 347.345,129.049C340.37,129.544 320.028,123.624 320.605,122.637C321.182,121.651 325.255,116.718 325.255,116.718L309.561,106.36L309.563,90.578Z" fill="#2F2E41"/>
<path d="M288.057,79.728C289.341,79.728 290.382,78.844 290.382,77.755C290.382,76.665 289.341,75.782 288.057,75.782C286.773,75.782 285.732,76.665 285.732,77.755C285.732,78.844 286.773,79.728 288.057,79.728Z" fill="#FFB8B8"/>
<path d="M366.869,182.598L225.539,182.598L225.539,198.588L366.869,198.588L366.869,182.598Z" fill="#E6E6E6"/>
<path d="M78.47,158.333L40.782,158.333L40.782,198.285L78.47,198.285L78.47,158.333Z" fill="#E6E6E6"/>
<path d="M185.645,48.402L147.957,48.402L147.957,146.318L185.645,146.318L185.645,48.402Z" fill="#E6E6E6"/>
<path d="M185.496,158.43L147.808,158.43L147.808,198.405L185.496,198.405L185.496,158.43Z" fill="#E6E6E6"/>
</svg>
