<svg width="50" height="26" viewBox="0 0 50 26" fill="none" xmlns="http://www.w3.org/2000/svg" xmlns:xlink="http://www.w3.org/1999/xlink">
<path d="M42.5,5.5L42.5,10.5L45,10.5L45,15.5L42.5,15.5L42.5,20.5L5,20.5L5,5.5L42.5,5.5ZM43.75,0.5L3.75,0.5C1.679,0.5 0,2.179 0,4.25L0,21.75C0,23.821 1.679,25.5 3.75,25.5L43.75,25.5C45.821,25.5 47.5,23.821 47.5,21.75L47.5,20.5L48.125,20.5C49.161,20.5 50,19.661 50,18.625L50,7.375C50,6.339 49.161,5.5 48.125,5.5L47.5,5.5L47.5,4.25C47.5,2.179 45.821,0.5 43.75,0.5ZM32.5,8L7.5,8L7.5,18L32.5,18L32.5,8Z" fill="#000000"/>
</svg>
