<svg width="50" height="50" viewBox="0 0 50 50" fill="none" xmlns="http://www.w3.org/2000/svg" xmlns:xlink="http://www.w3.org/1999/xlink">
<path d="M28.741,46.651L26.264,49.193C25.215,50.269 23.519,50.269 22.481,49.193L0.787,26.946C-0.262,25.87 -0.262,24.13 0.787,23.065L22.481,0.807C23.53,-0.269 25.226,-0.269 26.264,0.807L28.741,3.349C29.801,4.437 29.779,6.211 28.697,7.276L15.249,20.42L47.322,20.42C48.806,20.42 50,21.645 50,23.168L50,26.832C50,28.355 48.806,29.58 47.322,29.58L15.249,29.58L28.697,42.724C29.79,43.789 29.813,45.563 28.741,46.651Z" fill="#000000"/>
</svg>
