<svg width="50" height="36" viewBox="0 0 50 36" fill="none" xmlns="http://www.w3.org/2000/svg" xmlns:xlink="http://www.w3.org/1999/xlink">
<path d="M49.602,9.1C35.761,-3.702 14.234,-3.698 0.398,9.1C-0.123,9.581 -0.133,10.396 0.37,10.895L3.045,13.549C3.525,14.026 4.297,14.036 4.795,13.579C16.195,3.135 33.803,3.133 45.205,13.579C45.704,14.036 46.476,14.025 46.955,13.549L49.63,10.895C50.133,10.396 50.123,9.581 49.602,9.1ZM25,24.5C22.238,24.5 20,26.738 20,29.5C20,32.262 22.238,34.5 25,34.5C27.762,34.5 30,32.262 30,29.5C30,26.738 27.762,24.5 25,24.5ZM40.834,17.97C31.829,10.006 18.161,10.015 9.166,17.97C8.627,18.446 8.61,19.273 9.122,19.778L11.813,22.434C12.281,22.896 13.036,22.927 13.535,22.496C20.094,16.827 29.921,16.839 36.464,22.496C36.963,22.927 37.718,22.897 38.187,22.434L40.877,19.778C41.39,19.273 41.372,18.445 40.834,17.97Z" fill="#000000"/>
</svg>
