<svg width="44" height="44" viewBox="0 0 44 44" fill="none" xmlns="http://www.w3.org/2000/svg" xmlns:xlink="http://www.w3.org/1999/xlink">
<path d="M42.188,37.5L1.563,37.5C1.148,37.5 0.751,37.665 0.458,37.958C0.165,38.251 0,38.648 0,39.062L0,42.188C0,42.602 0.165,42.999 0.458,43.292C0.751,43.585 1.148,43.75 1.563,43.75L42.188,43.75C42.602,43.75 42.999,43.585 43.292,43.292C43.585,42.999 43.75,42.602 43.75,42.188L43.75,39.062C43.75,38.648 43.585,38.251 43.292,37.958C42.999,37.665 42.602,37.5 42.188,37.5ZM42.188,25L1.563,25C1.148,25 0.751,25.165 0.458,25.458C0.165,25.751 0,26.148 0,26.562L0,29.688C0,30.102 0.165,30.499 0.458,30.792C0.751,31.085 1.148,31.25 1.563,31.25L42.188,31.25C42.602,31.25 42.999,31.085 43.292,30.792C43.585,30.499 43.75,30.102 43.75,29.688L43.75,26.562C43.75,26.148 43.585,25.751 43.292,25.458C42.999,25.165 42.602,25 42.188,25ZM42.188,12.5L1.563,12.5C1.148,12.5 0.751,12.665 0.458,12.958C0.165,13.251 0,13.648 0,14.063L0,17.188C0,17.602 0.165,17.999 0.458,18.292C0.751,18.585 1.148,18.75 1.563,18.75L42.188,18.75C42.602,18.75 42.999,18.585 43.292,18.292C43.585,17.999 43.75,17.602 43.75,17.188L43.75,14.063C43.75,13.648 43.585,13.251 43.292,12.958C42.999,12.665 42.602,12.5 42.188,12.5ZM42.188,0L1.563,0C1.148,0 0.751,0.165 0.458,0.458C0.165,0.751 0,1.148 0,1.563L0,4.688C0,5.102 0.165,5.499 0.458,5.792C0.751,6.085 1.148,6.25 1.563,6.25L42.188,6.25C42.602,6.25 42.999,6.085 43.292,5.792C43.585,5.499 43.75,5.102 43.75,4.688L43.75,1.563C43.75,1.148 43.585,0.751 43.292,0.458C42.999,0.165 42.602,0 42.188,0Z" fill="#000000"/>
</svg>
