<svg width="50" height="40" viewBox="0 0 50 40" fill="none" xmlns="http://www.w3.org/2000/svg" xmlns:xlink="http://www.w3.org/1999/xlink">
<path d="M25,31.25C19.074,31.25 14.277,26.663 13.836,20.851L5.64,14.517C4.563,15.869 3.572,17.298 2.772,18.86C2.593,19.214 2.5,19.604 2.5,20.001C2.5,20.397 2.593,20.787 2.772,21.141C7.008,29.407 15.396,35 25,35C27.102,35 29.13,34.688 31.085,34.183L27.031,31.046C26.362,31.176 25.682,31.244 25,31.25ZM49.517,35.789L40.88,29.114C43.504,26.903 45.662,24.193 47.228,21.14C47.407,20.787 47.5,20.396 47.5,20C47.5,19.604 47.407,19.213 47.228,18.86C42.991,10.593 34.604,5 25,5C20.978,5.005 17.021,6.018 13.49,7.946L3.551,0.263C3.422,0.163 3.274,0.088 3.115,0.045C2.957,0.001 2.792,-0.011 2.629,0.01C2.466,0.03 2.308,0.082 2.166,0.164C2.023,0.245 1.897,0.353 1.797,0.483L0.263,2.457C0.06,2.719 -0.031,3.051 0.01,3.38C0.051,3.709 0.221,4.008 0.483,4.211L46.448,39.737C46.578,39.838 46.726,39.912 46.884,39.956C47.043,39.999 47.208,40.011 47.371,39.991C47.534,39.97 47.691,39.918 47.834,39.837C47.977,39.756 48.102,39.647 48.203,39.517L49.737,37.543C49.941,37.281 50.032,36.95 49.99,36.621C49.949,36.292 49.779,35.993 49.517,35.789ZM35.164,24.696L32.094,22.322C32.352,21.575 32.489,20.791 32.5,20C32.515,18.843 32.259,17.698 31.751,16.657C31.243,15.617 30.499,14.71 29.577,14.009C28.656,13.308 27.582,12.834 26.444,12.623C25.306,12.413 24.134,12.472 23.022,12.796C23.494,13.435 23.748,14.207 23.75,15C23.738,15.264 23.698,15.526 23.63,15.781L17.879,11.337C19.876,9.668 22.396,8.752 25,8.75C26.477,8.749 27.941,9.04 29.306,9.605C30.671,10.17 31.912,10.999 32.957,12.043C34.001,13.088 34.83,14.329 35.395,15.694C35.96,17.059 36.251,18.523 36.25,20C36.25,21.69 35.837,23.265 35.164,24.696L35.164,24.696Z" fill="#000000"/>
</svg>
