<svg width="48" height="42" viewBox="0 0 48 42" fill="none" xmlns="http://www.w3.org/2000/svg" xmlns:xlink="http://www.w3.org/1999/xlink">
<path d="M14.875,23.5L11.125,23.5C10.434,23.5 9.875,24.059 9.875,24.75L9.875,39.75C9.875,40.441 10.434,41 11.125,41L14.875,41C15.566,41 16.125,40.441 16.125,39.75L16.125,24.75C16.125,24.059 15.566,23.5 14.875,23.5ZM4.875,31L1.125,31C0.434,31 -0.125,31.559 -0.125,32.25L-0.125,39.75C-0.125,40.441 0.434,41 1.125,41L4.875,41C5.566,41 6.125,40.441 6.125,39.75L6.125,32.25C6.125,31.559 5.566,31 4.875,31ZM24.875,16L21.125,16C20.434,16 19.875,16.559 19.875,17.25L19.875,39.75C19.875,40.441 20.434,41 21.125,41L24.875,41C25.566,41 26.125,40.441 26.125,39.75L26.125,17.25C26.125,16.559 25.566,16 24.875,16ZM34.875,8.5L31.125,8.5C30.434,8.5 29.875,9.059 29.875,9.75L29.875,39.75C29.875,40.441 30.434,41 31.125,41L34.875,41C35.566,41 36.125,40.441 36.125,39.75L36.125,9.75C36.125,9.059 35.566,8.5 34.875,8.5ZM44.875,1L41.125,1C40.434,1 39.875,1.559 39.875,2.25L39.875,39.75C39.875,40.441 40.434,41 41.125,41L44.875,41C45.566,41 46.125,40.441 46.125,39.75L46.125,2.25C46.125,1.559 45.566,1 44.875,1Z" fill="#000000"/>
</svg>
