<svg width="274" height="208" viewBox="0 0 274 208" fill="none" xmlns="http://www.w3.org/2000/svg" xmlns:xlink="http://www.w3.org/1999/xlink">
<path d="M95.9,104C106.738,104 117.333,100.95 126.345,95.236C135.357,89.523 142.381,81.401 146.529,71.9C150.676,62.398 151.762,51.942 149.647,41.855C147.533,31.768 142.313,22.503 134.649,15.23C126.986,7.958 117.221,3.006 106.591,0.999C95.961,-1.007 84.942,0.023 74.929,3.958C64.916,7.894 56.357,14.559 50.335,23.11C44.314,31.662 41.1,41.715 41.1,52C41.1,65.791 46.874,79.018 57.151,88.77C67.428,98.521 81.366,104 95.9,104ZM137,130C137.031,125.658 138.224,121.394 140.468,117.609C138.413,117.406 136.401,117 134.26,117L127.11,117C117.324,121.282 106.676,123.5 95.9,123.5C85.124,123.5 74.476,121.282 64.69,117L57.54,117C42.28,117.003 27.647,122.757 16.857,132.996C6.067,143.234 0.003,157.12 0,171.6L0,188.5C0,193.672 2.165,198.632 6.019,202.288C9.873,205.946 15.1,208 20.55,208L140.81,208C138.348,204.064 137.033,199.577 137,195L137,130ZM260.3,117L246.6,117L246.6,84.5C246.6,75.88 242.992,67.614 236.568,61.519C230.146,55.424 221.434,52 212.35,52C203.266,52 194.555,55.424 188.132,61.519C181.708,67.614 178.1,75.88 178.1,84.5L178.1,117L164.4,117C160.767,117 157.282,118.37 154.713,120.808C152.143,123.246 150.7,126.552 150.7,130L150.7,195C150.7,198.448 152.143,201.754 154.713,204.192C157.282,206.63 160.767,208 164.4,208L260.3,208C263.934,208 267.418,206.63 269.988,204.192C272.556,201.754 274,198.448 274,195L274,130C274,126.552 272.556,123.246 269.988,120.808C267.418,118.37 263.934,117 260.3,117ZM212.35,175.5C209.64,175.5 206.992,174.738 204.738,173.309C202.486,171.881 200.73,169.85 199.693,167.475C198.656,165.099 198.385,162.486 198.913,159.964C199.442,157.442 200.746,155.126 202.662,153.308C204.578,151.49 207.02,150.251 209.678,149.75C212.334,149.248 215.09,149.506 217.592,150.49C220.096,151.474 222.236,153.14 223.742,155.278C225.246,157.415 226.05,159.929 226.05,162.5C226.05,165.948 224.606,169.254 222.038,171.692C219.468,174.13 215.984,175.5 212.35,175.5ZM226.05,117L198.65,117L198.65,84.5C198.65,81.052 200.094,77.746 202.662,75.308C205.232,72.87 208.716,71.5 212.35,71.5C215.984,71.5 219.468,72.87 222.038,75.308C224.606,77.746 226.05,81.052 226.05,84.5L226.05,117Z" fill="#000000"/>
</svg>
