<svg width="50" height="34" viewBox="0 0 50 34" fill="none" xmlns="http://www.w3.org/2000/svg" xmlns:xlink="http://www.w3.org/1999/xlink">
<path d="M33.333,0L16.667,0C7.462,0 0,7.462 0,16.667C0,25.871 7.462,33.333 16.667,33.333L33.333,33.333C42.538,33.333 50,25.871 50,16.667C50,7.462 42.538,0 33.333,0ZM5.556,16.667C5.556,10.526 10.525,5.556 16.667,5.556C22.807,5.556 27.778,10.525 27.778,16.667C27.778,22.807 22.808,27.778 16.667,27.778C10.526,27.778 5.556,22.808 5.556,16.667ZM33.333,27.778L29.088,27.778C34.749,21.453 34.751,11.882 29.088,5.556L33.333,5.556C39.474,5.556 44.444,10.525 44.444,16.667C44.444,22.807 39.475,27.778 33.333,27.778Z" fill="#000000"/>
</svg>
